HIERARCHY
ROOT joint_Root
{
	OFFSET 0.0 0.0 0.0
	CHANNELS 6 Xposition Yposition Zposition Zrotation Xrotation Yrotation 
	JOINT Hips
	{
		OFFSET -0.726466 93.3139 -2.00062
		CHANNELS 6 Xposition Yposition Zposition Zrotation Xrotation Yrotation 
		JOINT Spine
		{
			OFFSET 15.7357 0.0 0.0
			CHANNELS 6 Xposition Yposition Zposition Zrotation Xrotation Yrotation 
			JOINT Chest
			{
				OFFSET 8.98455 -0.406207 0.0
				CHANNELS 6 Xposition Yposition Zposition Zrotation Xrotation Yrotation 
				JOINT Neck
				{
					OFFSET 16.3773 0.0 0.0
					CHANNELS 6 Xposition Yposition Zposition Zrotation Xrotation Yrotation 
					JOINT Head
					{
						OFFSET 6.45672 0.0 0.0
						CHANNELS 6 Xposition Yposition Zposition Zrotation Xrotation Yrotation 
						End Site
						{
							OFFSET 0.0 0.0 0.0
						}
					}
				}
				JOINT Shoulder_L
				{
					OFFSET 12.9942 -0.242716 4.98039
					CHANNELS 6 Xposition Yposition Zposition Zrotation Xrotation Yrotation 
					JOINT UpperArm_L
					{
						OFFSET 5.34809 0.0 0.0
						CHANNELS 6 Xposition Yposition Zposition Zrotation Xrotation Yrotation 
						JOINT LowerArm_L
						{
							OFFSET 24.3286 1.87007e-05 0.0
							CHANNELS 6 Xposition Yposition Zposition Zrotation Xrotation Yrotation 
							JOINT Hand_L
							{
								OFFSET 22.2916 0.0 0.0
								CHANNELS 6 Xposition Yposition Zposition Zrotation Xrotation Yrotation 
								End Site
								{
									OFFSET 0.0 0.0 0.0
								}
							}
						}
					}
				}
				JOINT Shoulder_R
				{
					OFFSET 12.9945 -0.242716 -4.98039
					CHANNELS 6 Xposition Yposition Zposition Zrotation Xrotation Yrotation 
					JOINT UpperArm_R
					{
						OFFSET -5.34813 0.0 0.0
						CHANNELS 6 Xposition Yposition Zposition Zrotation Xrotation Yrotation 
						JOINT LowerArm_R
						{
							OFFSET -24.3289 0.000322201 0.0
							CHANNELS 6 Xposition Yposition Zposition Zrotation Xrotation Yrotation 
							JOINT Hand_R
							{
								OFFSET -22.2915 -0.000108084 0.0
								CHANNELS 6 Xposition Yposition Zposition Zrotation Xrotation Yrotation 
								End Site
								{
									OFFSET 0.0 0.0 0.0
								}
							}
						}
					}
				}
			}
		}
		JOINT UpperLeg_L
		{
			OFFSET -2.19248 -6.46944 0.0
			CHANNELS 6 Xposition Yposition Zposition Zrotation Xrotation Yrotation 
			JOINT LowerLeg_L
			{
				OFFSET 39.0811 0.0 -1.23785e-05
				CHANNELS 6 Xposition Yposition Zposition Zrotation Xrotation Yrotation 
				JOINT Foot_L
				{
					OFFSET 40.9854 0.0 -1.26872e-05
					CHANNELS 6 Xposition Yposition Zposition Zrotation Xrotation Yrotation 
					JOINT Toes_L
					{
						OFFSET 11.7543 0.0 0.0
						CHANNELS 6 Xposition Yposition Zposition Zrotation Xrotation Yrotation 
						End Site
						{
							OFFSET 0.0 0.0 0.0
						}
					}
				}
			}
		}
		JOINT UpperLeg_R
		{
			OFFSET -2.19251 6.46944 0.0
			CHANNELS 6 Xposition Yposition Zposition Zrotation Xrotation Yrotation 
			JOINT LowerLeg_R
			{
				OFFSET -39.0811 -0.00228153 -0.0401928
				CHANNELS 6 Xposition Yposition Zposition Zrotation Xrotation Yrotation 
				JOINT Foot_R
				{
					OFFSET -40.9854 0.0 0.0
					CHANNELS 6 Xposition Yposition Zposition Zrotation Xrotation Yrotation 
					JOINT Toes_R
					{
						OFFSET -11.7543 0.0 0.0
						CHANNELS 6 Xposition Yposition Zposition Zrotation Xrotation Yrotation 
						End Site
						{
							OFFSET 0.0 0.0 0.0
						}
					}
				}
			}
		}
	}
}
MOTION
Frames:	7
Frame Time:	0.0333333
0.000000 0.000000 0.000000 0.000000 0.000000 -0.000000 -1.441800 92.202100 0.079449 88.035100 -0.435983 4.571150 15.735700 0.000005 -0.000001 86.513600 85.097000 -86.340600 8.984550 -0.406207 -0.000000 2.022940 -0.604590 0.356286 16.377300 -0.000001 -0.000001 4.951030 -2.899050 1.047160 6.456720 -0.000001 -0.000000 1.421650 -2.068180 -0.335593 12.994200 -0.242716 4.980390 -89.899100 -0.322469 -72.628500 5.348090 -0.000007 -0.000001 -67.729400 39.952500 -13.339300 24.328600 0.000019 0.000005 0.409743 0.949913 -23.332200 22.291600 -0.000001 0.000005 5.426830 5.484930 -5.938440 12.994500 -0.242716 -4.980390 87.462800 7.459290 -71.153600 -5.348130 -0.000001 -0.000004 -65.955900 38.541900 -15.356100 -24.328900 0.000322 -0.000009 2.471240 7.338920 -18.675500 -22.291500 -0.000108 -0.000004 6.913530 5.315080 -0.354261 -2.192480 -6.469440 -0.000000 -174.986000 -5.238240 -1.610090 39.081100 -0.000007 -0.000012 -0.124451 0.294257 22.925200 40.985400 -0.000006 -0.000013 -0.906769 2.841200 -66.936200 11.754300 -0.000000 0.000003 -0.000053 -0.000598 -16.600700 -2.192510 6.469440 -0.000001 -179.772000 12.742500 -179.510000 -39.081100 -0.002282 -0.040193 -0.001923 0.014330 20.098800 -40.985400 0.000008 0.000006 4.868590 6.068600 -66.727300 -11.754300 -0.000006 -0.000006 -0.008311 -0.090551 -20.260700
0.000000 0.000000 0.000000 0.000000 0.000000 -0.000000 -1.448030 92.191000 0.063741 88.045100 -0.477863 4.629520 15.735700 0.000005 -0.000001 86.478800 85.095400 -86.369400 8.984550 -0.406207 -0.000000 2.025420 -0.607537 0.229513 16.377300 -0.000001 -0.000001 4.930530 -2.877820 1.045100 6.456720 -0.000001 -0.000000 1.421130 -2.021650 -0.360196 12.994200 -0.242716 4.980390 -89.882900 -0.372772 -72.562600 5.348090 -0.000007 -0.000001 -67.780200 39.909700 -13.349600 24.328600 0.000019 0.000005 0.438324 1.017900 -23.296900 22.291600 -0.000001 0.000005 5.428410 5.488380 -6.072450 12.994500 -0.242716 -4.980390 87.439700 7.520840 -71.138000 -5.348130 -0.000001 -0.000004 -65.972300 37.421000 -15.341400 -24.328900 0.000322 -0.000009 2.715770 7.571600 -19.805300 -22.291500 -0.000108 -0.000004 6.112930 5.304870 -0.062113 -2.192480 -6.469440 -0.000000 -174.985000 -5.242740 -1.593950 39.081100 -0.000007 -0.000012 -0.127147 0.299545 22.999700 40.985400 -0.000006 -0.000013 -0.922732 2.795100 -66.964900 11.754300 -0.000000 0.000003 -0.000067 -0.000728 -16.605700 -2.192510 6.469440 -0.000001 -179.827000 12.839800 -179.508000 -39.081100 -0.002282 -0.040193 -0.005154 0.023040 20.194800 -40.985400 0.000008 0.000006 4.793180 6.207600 -66.755600 -11.754300 -0.000006 -0.000006 -0.008059 -0.088515 -20.177500
0.000000 0.000000 0.000000 0.000000 0.000000 -0.000000 -1.453620 92.194300 0.050148 88.045200 -0.503722 4.729620 15.735700 0.000005 -0.000001 86.610800 85.078600 -86.547900 8.984550 -0.406207 -0.000000 2.060020 -0.584625 0.136168 16.377300 -0.000001 -0.000001 4.869400 -2.807790 0.952234 6.456720 -0.000001 -0.000000 1.418320 -2.033130 -0.397931 12.994200 -0.242716 4.980390 -89.884400 -0.366949 -72.519100 5.348090 -0.000007 -0.000001 -67.790100 39.935300 -13.350200 24.328600 0.000019 0.000005 0.401800 0.928155 -23.406800 22.291600 -0.000001 0.000005 5.420360 5.486660 -6.005070 12.994500 -0.242716 -4.980390 87.399000 7.574530 -70.985000 -5.348130 -0.000001 -0.000004 -65.986300 35.489800 -15.185000 -24.328900 0.000322 -0.000009 3.102130 7.577710 -22.348000 -22.291500 -0.000108 -0.000004 5.125850 5.283630 0.527953 -2.192480 -6.469440 -0.000000 -174.964000 -5.328850 -1.489050 39.081100 -0.000007 -0.000012 -0.124804 0.294283 22.981700 40.985400 -0.000006 -0.000013 -0.907139 2.866450 -66.947300 11.754300 -0.000000 0.000003 -0.000049 -0.000551 -16.599000 -2.192510 6.469440 -0.000001 -179.843000 12.910200 -179.412000 -39.081100 -0.002282 -0.040193 -0.002660 0.016264 20.190900 -40.985400 0.000008 0.000006 4.882160 6.250680 -66.758600 -11.754300 -0.000006 -0.000006 -0.008310 -0.090547 -20.260500
0.000000 0.000000 0.000000 0.000000 0.000000 -0.000000 -1.434530 92.199800 0.007610 88.037000 -0.635640 4.755360 15.735700 0.000005 -0.000001 86.865100 85.084700 -86.843300 8.984550 -0.406207 -0.000000 2.050010 -0.538337 0.053156 16.377300 -0.000001 -0.000001 4.814590 -2.718590 0.820116 6.456720 -0.000001 -0.000000 1.328690 -1.956670 -0.438080 12.994200 -0.242716 4.980390 -89.873200 -0.400355 -72.424100 5.348090 -0.000007 -0.000001 -67.915400 39.801600 -13.315300 24.328600 0.000019 0.000005 0.419904 0.968380 -23.441300 22.291600 -0.000001 0.000005 5.392400 5.488980 -6.095960 12.994500 -0.242716 -4.980390 87.339600 7.667480 -70.798900 -5.348130 -0.000001 -0.000004 -65.884500 32.796200 -15.051100 -24.328900 0.000322 -0.000009 3.475530 7.013130 -26.458600 -22.291500 -0.000108 -0.000004 4.527870 5.282900 0.547021 -2.192480 -6.469440 -0.000000 -174.963000 -5.391270 -1.458930 39.081100 -0.000007 -0.000012 -0.125796 0.296872 22.964300 40.985400 -0.000006 -0.000013 -0.913496 2.792650 -66.925700 11.754300 -0.000000 0.000003 -0.000046 -0.000526 -16.598000 -2.192510 6.469440 -0.000001 -179.843000 12.809000 -179.419000 -39.081100 -0.002282 -0.040193 -0.001871 0.014126 20.180200 -40.985400 0.000008 0.000006 4.871380 6.341530 -66.716400 -11.754300 -0.000006 -0.000006 -0.007994 -0.087980 -20.155700
0.000000 0.000000 0.000000 0.000000 0.000000 -0.000000 -1.402580 92.202200 -0.044867 87.999900 -0.800783 4.752870 15.735700 0.000005 -0.000001 86.857200 85.108400 -86.848800 8.984550 -0.406207 -0.000000 2.002580 -0.536426 0.026112 16.377300 -0.000001 -0.000001 4.785580 -2.603230 0.676256 6.456720 -0.000001 -0.000000 1.174470 -1.783620 -0.680609 12.994200 -0.242716 4.980390 -89.881700 -0.371152 -72.313100 5.348090 -0.000007 -0.000001 -67.999000 39.767500 -13.185800 24.328600 0.000019 0.000005 0.352767 0.810174 -23.528800 22.291600 -0.000001 0.000005 5.465370 5.490370 -6.150580 12.994500 -0.242716 -4.980390 87.307800 7.646650 -70.537700 -5.348130 -0.000001 -0.000004 -65.479600 29.884900 -15.360500 -24.328900 0.000322 -0.000009 3.861470 6.207900 -31.976400 -22.291500 -0.000108 -0.000004 5.226990 5.293490 0.253093 -2.192480 -6.469440 -0.000000 -174.964000 -5.384670 -1.504360 39.081100 -0.000007 -0.000012 -0.126952 0.298905 23.012200 40.985400 -0.000006 -0.000013 -0.925143 2.618440 -66.923900 11.754300 -0.000000 0.000003 -0.000057 -0.000635 -16.602200 -2.192510 6.469440 -0.000001 -179.827000 12.680400 -179.471000 -39.081100 -0.002282 -0.040193 -0.004411 0.021044 20.174200 -40.985400 0.000008 0.000006 4.764720 6.403800 -66.644200 -11.754300 -0.000006 -0.000006 -0.007905 -0.087256 -20.126100
0.000000 0.000000 0.000000 0.000000 0.000000 -0.000000 -1.346710 92.217700 -0.146143 87.975500 -1.108000 4.672010 15.735700 0.000005 -0.000001 87.024200 85.148600 -87.011800 8.984550 -0.406207 -0.000000 1.923750 -0.504025 0.033240 16.377300 -0.000001 -0.000001 4.702600 -2.444320 0.509989 6.456720 -0.000001 -0.000000 0.910842 -1.516690 -1.159210 12.994200 -0.242716 4.980390 -89.903400 -0.301294 -72.213100 5.348090 -0.000007 -0.000001 -68.078400 39.666100 -13.038200 24.328600 0.000019 0.000005 0.350540 0.801989 -23.607900 22.291600 -0.000001 0.000005 5.418530 5.487600 -6.042110 12.994500 -0.242716 -4.980390 87.308400 7.522410 -70.246200 -5.348130 -0.000001 -0.000004 -64.627100 27.014100 -16.537300 -24.328900 0.000322 -0.000009 5.161340 6.481370 -38.659600 -22.291500 -0.000108 -0.000004 7.391720 5.295010 0.210484 -2.192480 -6.469440 -0.000000 -174.977000 -5.596880 -1.587920 39.081100 -0.000007 -0.000012 -0.124827 0.294411 22.976600 40.985400 -0.000006 -0.000013 -0.904843 2.528510 -66.866100 11.754300 -0.000000 0.000003 -0.000049 -0.000555 -16.599100 -2.192510 6.469440 -0.000001 -179.766000 12.399700 -179.642000 -39.081100 -0.002282 -0.040193 -0.002594 0.016118 20.152400 -40.985400 0.000008 0.000006 4.802690 6.416180 -66.539000 -11.754300 -0.000006 -0.000006 -0.008465 -0.091786 -20.311200
0.000000 0.000000 0.000000 0.000000 0.000000 -0.000000 -1.262730 92.237300 -0.246131 87.925300 -1.509030 4.619330 15.735700 0.000005 -0.000001 87.292300 85.177000 -87.239300 8.984550 -0.406207 -0.000000 1.869560 -0.458127 0.113467 16.377300 -0.000001 -0.000001 4.603330 -2.237470 0.336398 6.456720 -0.000001 -0.000000 0.492657 -1.206280 -1.946780 12.994200 -0.242716 4.980390 -89.940700 -0.184187 -72.138200 5.348090 -0.000007 -0.000001 -68.144800 39.594300 -12.869200 24.328600 0.000019 0.000005 0.377200 0.864065 -23.582200 22.291600 -0.000001 0.000005 5.360210 5.488780 -6.087910 12.994500 -0.242716 -4.980390 87.357400 7.278800 -69.983600 -5.348130 -0.000001 -0.000004 -63.764600 23.586600 -18.453900 -24.328900 0.000322 -0.000009 7.764910 7.517730 -46.175300 -22.291500 -0.000108 -0.000004 10.052300 5.291230 0.314068 -2.192480 -6.469440 -0.000000 -174.985000 -5.899510 -1.634620 39.081100 -0.000007 -0.000012 -0.122895 0.290357 22.940800 40.985400 -0.000006 -0.000013 -0.866711 2.389540 -66.810200 11.754300 -0.000000 0.000003 -0.000047 -0.000538 -16.598400 -2.192510 6.469440 -0.000001 -179.716000 12.080900 -179.770000 -39.081100 -0.002282 -0.040193 -0.000480 0.010393 20.092300 -40.985400 0.000008 0.000006 4.875630 6.508380 -66.415000 -11.754300 -0.000006 -0.000006 -0.008669 -0.093410 -20.377500
